<?xml version="1.0" encoding="iso-8859-1"?>
<!-- Generator: Adobe Illustrator 19.0.0, SVG Export Plug-In . SVG Version: 6.00 Build 0)  -->
<svg version="1.1" id="Capa_1" xmlns="http://www.w3.org/2000/svg" xmlns:xlink="http://www.w3.org/1999/xlink" x="0px" y="0px"
	 viewBox="0 0 512.003 512.003" style="enable-background:new 0 0 512.003 512.003;" xml:space="preserve">
<g>
	<g>
		<path d="M500.023,471.132h-10.162c3.627-9.671,3.602-21.43-4.809-33.131c-10.398-14.46-26.166-16.765-39.044-14.974
			c-0.322-5.419-1.608-11.58-4.858-17.548c-5.242-9.625-14.168-16.284-26.529-19.793c-24.976-7.085-42.644,5.329-51.83,17.054
			c-17.081-5.617-36.897-0.322-50.066,14.276c-10.67,11.828-17.764,31.857-8.65,54.115h-24.096
			c-28.592-71.264-30.446-126.78-25.684-163.54c2.976,0.388,5.996,0.582,9.036,0.582c15.578,0,31.556-4.779,43.509-11.107
			c4.627,1.74,9.401,3.029,14.246,3.846c10.77,1.827,30.226,3.677,49.633,2.884c19.189-0.787,33.159-3.844,42.361-9.3
			c0.913,0.475,1.823,0.931,2.726,1.367c17.785,8.611,36.835,12.216,53.643,10.133c18.402-2.273,32.15-10.988,38.71-24.537
			c8.862-18.307,2.061-41.764-16.865-60.832c9.936-10.844,16.596-24.365,19.081-39.039c7.081-41.773-21.146-81.522-62.926-88.606
			c-7.349-1.24-14.742-1.416-22.066-0.526c-17.723-29.627-45.604-44.625-83.006-44.625c-0.577,0-1.16,0.003-1.742,0.011
			c-29.738,0.364-51.544,7.784-66.36,22.635c-4.178-1.482-8.476-2.602-12.85-3.344c-41.774-7.075-81.522,21.147-88.606,62.925
			c-3.628,21.45,1.832,42.924,15.035,59.907c-2.348,5.768-4.055,11.777-5.094,17.935c-3.414,20.162,0.071,48.611,14.848,69.828
			c-18.05,34.734-26.464,79.159-25.007,132.193c0.723,26.319,3.773,48.334,5.973,61.211h-60.922l9.957-9.961
			c3.905-3.905,3.903-10.237-0.002-14.143c-3.907-3.906-10.239-3.904-14.143,0.003l-9.948,9.952V442.91c0-5.522-4.477-10-10-10
			s-10,4.478-10,10v14.078l-9.959-9.959c-3.905-3.904-10.237-3.904-14.144,0c-3.905,3.905-3.905,10.237,0,14.144l9.959,9.959H10
			c-5.523,0-10,4.478-10,10c0,5.522,4.477,10,10,10h263.216c0.013,0,0.026,0.003,0.04,0.003c0.02,0,0.04-0.003,0.06-0.003h48.028
			c0.006,0,0.012,0.001,0.017,0.001c0.008,0,0.016-0.001,0.025-0.001h178.636c5.523,0,10-4.478,10-10
			C510.024,475.61,505.547,471.132,500.023,471.132z M192.539,133.396c5.24-30.903,34.65-51.779,65.541-46.545
			c5.077,0.861,10.022,2.412,14.699,4.61c4.212,1.979,9.229,0.792,12.109-2.86c10.75-13.641,29.064-20.432,55.992-20.762
			c0.51-0.006,1.014-0.009,1.517-0.009c43.073,0,59.88,22.913,68.79,40.244c2.08,4.047,6.627,6.181,11.07,5.188
			c7.204-1.606,14.559-1.794,21.854-0.562c30.902,5.239,51.782,34.643,46.544,65.544c-2.321,13.708-9.568,26.054-20.407,34.768
			c-2.368,1.904-3.742,4.781-3.734,7.82c0.008,3.038,1.397,5.908,3.775,7.8c17.522,13.939,25.69,32.077,19.865,44.111
			c-4.723,9.755-16.539,12.585-23.161,13.403c-13.029,1.611-28.114-1.332-42.478-8.286c-2.326-1.125-4.717-2.417-7.109-3.841
			c-3.934-2.342-8.958-1.712-12.194,1.528c-9.932,9.953-55.199,9.99-80.795,5.643c-4.853-0.817-9.609-2.277-14.137-4.339
			c-3.039-1.384-6.569-1.16-9.409,0.599c-11.079,6.858-28.555,12.026-43.108,10.423c5.717-25.365,13.9-38.973,13.975-39.096
			c1.484-2.388,1.894-5.29,1.13-7.995s-2.632-4.965-5.145-6.224l-17.311-8.67c-3.395-1.698-7.458-1.331-10.491,0.95
			c-11.589,8.72-21.803,19.281-30.502,31.5c-7.274-15.05-9.217-33.632-6.935-47.107c1.081-6.412,3.108-12.608,6.025-18.416
			c1.871-3.725,1.235-8.22-1.596-11.28C194.814,168.459,189.576,150.913,192.539,133.396z M198.907,471.131
			c-4.954-27.718-18.29-123.466,19.273-189.391c7.853-13.793,17.583-25.58,28.971-35.114l2.636,1.32
			c-4.096,9.117-9.822,24.524-13.603,45.765c-6.705,37.695-7.88,98.355,22.316,177.419H198.907z M470.684,465.272
			c-1.159,2.431-2.732,4.453-4.001,5.857H326.567c-9.31-14.618-9.034-29.584,1.007-40.717c7.579-8.399,21.372-14.007,33.75-6.465
			c2.409,1.468,5.312,1.883,8.018,1.083c2.706-0.798,4.934-2.672,6.161-5.213c1.097-2.19,11.352-21.226,33.656-14.891
			c7.042,1.999,11.742,5.272,14.366,10.009c4.562,8.235,1.613,18.668,1.603,18.707c-1.152,3.765,0.036,7.845,2.998,10.438
			c2.962,2.593,7.193,3.196,10.773,1.559c0.831-0.38,20.432-9.15,29.915,4.035C472.63,454.985,473.225,459.941,470.684,465.272z"/>
	</g>
</g>
<g>
	<g>
		<path d="M114.477,77.776L20.503,39.625C15.386,37.55,9.552,40.012,7.475,45.13C5.397,50.247,7.862,56.08,12.98,58.157
			l93.974,38.151c1.232,0.5,2.505,0.737,3.758,0.737c3.95,0,7.692-2.356,9.269-6.241C122.059,85.687,119.595,79.853,114.477,77.776z
			"/>
	</g>
</g>
<g>
	<g>
		<path d="M156.311,44.176l-55.583-22.571c-5.118-2.077-10.951,0.385-13.029,5.503c-2.078,5.117,0.386,10.951,5.502,13.029
			l55.583,22.571c1.232,0.5,2.506,0.737,3.759,0.737c3.949,0,7.691-2.355,9.269-6.24C163.892,52.087,161.428,46.254,156.311,44.176z
			"/>
	</g>
</g>
<g>
	<g>
		<path d="M112.246,127.228l-53.372-21.661c-5.119-2.079-10.951,0.387-13.028,5.505c-2.077,5.117,0.388,10.951,5.505,13.027
			l53.372,21.661c1.232,0.5,2.505,0.737,3.757,0.737c3.95,0,7.692-2.356,9.27-6.242
			C119.829,135.138,117.364,129.305,112.246,127.228z"/>
	</g>
</g>
<g>
	<g>
		<path d="M356.141,372.462c-0.17-1.025-4.391-25.24-22.615-37.409c-18.216-12.186-42.208-6.836-43.221-6.603
			c-5.149,1.188-8.485,6.18-7.614,11.393c0.171,1.025,4.401,25.232,22.614,37.416c9.583,6.41,20.762,7.965,29.355,7.965
			c7.744,0,13.391-1.264,13.871-1.374C353.676,382.659,357.009,377.672,356.141,372.462z M316.425,360.634
			c-5.059-3.385-8.427-8.75-10.59-13.561c5.273,0.16,11.519,1.224,16.578,4.607c5.06,3.379,8.426,8.739,10.589,13.551
			C327.728,365.074,321.479,364.015,316.425,360.634z"/>
	</g>
</g>
<g>
	<g>
		<path d="M475.716,355.041c-0.251-0.974-6.352-23.946-24.941-34.163c-18.598-10.216-41.259-3.046-42.213-2.736
			c-5.026,1.632-7.916,6.891-6.597,12.009c0.25,0.973,6.352,23.934,24.936,34.148c7.675,4.221,16.044,5.479,23.293,5.479
			c10.314,0,18.364-2.548,18.925-2.729C474.145,365.418,477.035,360.158,475.716,355.041z M436.537,346.771
			c-4.829-2.654-8.352-7.157-10.784-11.369c4.864-0.206,10.559,0.351,15.391,3.005c4.83,2.654,8.353,7.16,10.785,11.378
			C447.07,349.995,441.371,349.43,436.537,346.771z"/>
	</g>
</g>
<g>
	<g>
		<path d="M395.749,189.237c-5.523,0-10,4.478-10,10c0,8.022-6.527,14.551-14.551,14.551c-0.569,0-1.149-0.034-1.724-0.102
			c-4.223-0.493-8.296,1.732-10.157,5.554c-3.345,6.87-10.162,11.138-17.79,11.138c-5.523,0-10,4.478-10,10c0,5.522,4.477,10,10,10
			c12.883,0,24.988-6.386,32.38-16.696c17.791-1.386,31.843-16.306,31.843-34.446C405.749,193.716,401.272,189.237,395.749,189.237z
			"/>
	</g>
</g>
<g>
	<g>
		<path d="M22.011,93.993c-12.87,0-12.891,20.001,0,20.001C34.881,113.994,34.902,93.993,22.011,93.993z"/>
	</g>
</g>
<g>
</g>
<g>
</g>
<g>
</g>
<g>
</g>
<g>
</g>
<g>
</g>
<g>
</g>
<g>
</g>
<g>
</g>
<g>
</g>
<g>
</g>
<g>
</g>
<g>
</g>
<g>
</g>
<g>
</g>
</svg>
