<?xml version="1.0" encoding="iso-8859-1"?>
<!-- Generator: Adobe Illustrator 19.0.0, SVG Export Plug-In . SVG Version: 6.00 Build 0)  -->
<svg version="1.1" id="Capa_1" xmlns="http://www.w3.org/2000/svg" xmlns:xlink="http://www.w3.org/1999/xlink" x="0px" y="0px"
	 viewBox="0 0 491.602 491.602" style="enable-background:new 0 0 491.602 491.602;" xml:space="preserve">
<g>
	<g>
		<path d="M245.945,164.828c-44.113,0-80,35.891-80,80s35.887,80,80,80s80-35.891,80-80S290.059,164.828,245.945,164.828z
			 M182.501,252.828h12.195c0.512,12.147,2.177,24.232,5.018,36.135C190.477,279.292,184.25,266.759,182.501,252.828z
			 M194.696,236.828h-12.195c1.749-13.931,7.976-26.464,17.213-36.135C196.874,212.596,195.208,224.681,194.696,236.828z
			 M237.945,308.272c-6.064-0.762-11.875-2.336-17.293-4.677c-0.416-1.16-0.747-2.339-1.137-3.505
			c5.582-3.637,11.833-6.04,18.43-7.128V308.272z M237.945,276.805c-8.101,0.997-15.856,3.469-22.932,7.344
			c-2.394-10.327-3.832-20.795-4.316-31.32h27.248V276.805z M237.945,236.828h-27.248c0.484-10.525,1.922-20.994,4.316-31.32
			c7.076,3.875,14.831,6.347,22.932,7.344V236.828z M237.945,196.694c-6.596-1.089-12.848-3.491-18.43-7.128
			c0.39-1.166,0.721-2.345,1.137-3.505c5.417-2.341,11.229-3.916,17.293-4.677V196.694z M309.39,236.828h-12.195
			c-0.512-12.146-2.177-24.232-5.017-36.135C301.414,210.364,307.641,222.897,309.39,236.828z M253.945,181.384
			c6.064,0.762,11.875,2.337,17.293,4.678c0.416,1.159,0.747,2.338,1.137,3.504c-5.582,3.637-11.834,6.04-18.43,7.128V181.384z
			 M271.238,303.595c-5.417,2.341-11.229,3.916-17.293,4.678v-15.311c6.596,1.089,12.849,3.491,18.43,7.128
			C271.985,301.256,271.654,302.436,271.238,303.595z M276.877,284.148c-7.076-3.875-14.831-6.347-22.932-7.344v-23.977h27.249
			C280.709,263.354,279.271,273.821,276.877,284.148z M253.945,236.828v-23.977c8.101-0.997,15.856-3.469,22.932-7.344
			c2.394,10.327,3.832,20.795,4.316,31.32H253.945z M292.177,288.963c2.84-11.903,4.505-23.988,5.017-36.135h12.195
			C307.641,266.759,301.414,279.292,292.177,288.963z"/>
	</g>
</g>
<g>
	<g>
		<path d="M133.945,236.828c-3.199,0-6.094,1.906-7.352,4.852l-15.973,37.258L77.48,186.141c-1.109-3.102-4-5.203-7.289-5.313
			c-3.316,0-6.309,1.82-7.598,4.852l-21.922,51.148H5.945v16h40c3.199,0,6.094-1.906,7.352-4.852l15.973-37.258l33.141,92.797
			c1.109,3.102,4,5.203,7.289,5.313c0.082,0,0.164,0,0.246,0c3.191,0,6.09-1.898,7.352-4.852l21.922-51.148h34.727v-8v-8H133.945z"
			/>
	</g>
</g>
<g>
	<g>
		<path d="M453.945,236.828c-3.199,0-6.094,1.906-7.352,4.852l-15.715,36.656l-33.344-100.039c-1.07-3.211-4.055-5.406-7.441-5.469
			c-3.684,0.125-6.449,2.023-7.641,5.188l-22.051,58.813h-42.457v8v8h48c3.336,0,6.32-2.07,7.492-5.188l16.063-42.844l32.855,98.563
			c1.051,3.148,3.938,5.32,7.258,5.461c0.113,0.008,0.223,0.008,0.332,0.008c3.191,0,6.09-1.898,7.352-4.852l21.922-51.148h26.727
			v-16H453.945z"/>
	</g>
</g>
<g>
	<g>
		<path d="M453.945,44.828c-0.223,0-0.445,0-0.664,0.008c-3.816-22.68-23.59-40.008-47.336-40.008
			c-25.242,0-45.996,19.586-47.863,44.352c-4.777-2.789-10.32-4.352-16.137-4.352c-17.645,0-32,14.352-32,32s14.355,32,32,32h56.004
			l-14.402,19.203c-1.82,2.422-2.113,5.664-0.758,8.375s4.125,4.422,7.156,4.422h16l-14.398,19.203l12.797,9.594l24-32
			c1.82-2.422,2.113-5.664,0.758-8.375s-4.125-4.422-7.156-4.422h-16l11.997-16h36.003c17.645,0,32-14.352,32-32
			S471.59,44.828,453.945,44.828z M453.945,92.828h-112c-8.824,0-16-7.18-16-16s7.176-16,16-16c6.801,0,12.824,4.258,14.988,10.586
			c1.105,3.242,4.148,5.414,7.57,5.414h4.723c2.688,0,5.195-1.352,6.676-3.594c1.48-2.234,1.738-5.07,0.684-7.547
			c-1.754-4.109-2.641-8.43-2.641-12.859c0-17.648,14.355-32,32-32s32,14.352,32.027,32.141c-0.465,2.836,0.625,5.703,2.855,7.508
			c2.23,1.813,5.254,2.266,7.934,1.25c1.531-0.594,3.277-0.898,5.184-0.898c8.824,0,16,7.18,16,16S462.77,92.828,453.945,92.828z"/>
	</g>
</g>
<g>
	<g>
		<path d="M115.891,71.477c-0.944-1.051-2.175-1.696-3.49-2.127l11.01-38.535c5.242,3.75,11.613,6.013,18.535,6.013
			c17.645,0,32-14.352,32-32h-16c0,8.82-7.176,16-16,16s-16-7.18-16-16h-16c0,8.82-7.176,16-16,16s-16-7.18-16-16h-16
			c0,8.82-7.176,16-16,16s-16-7.18-16-16h-16c0,17.648,14.355,32,32,32c6.922,0,13.293-2.263,18.535-6.013L75.49,69.35
			c-1.315,0.431-2.546,1.076-3.49,2.127l-72,80l11.891,10.703l40.817-45.352h17.238v8c0,13.234,10.766,24,24,24s24-10.766,24-24h8
			v28c0,11.031,8.973,20,20,20s20-8.969,20-20v-1.82L176,162.18l11.891-10.703L115.891,71.477z M93.945,36.828
			c4.164,0,8.118-0.856,11.77-2.309l-9.802,34.309h-3.935L82.176,34.52C85.828,35.972,89.782,36.828,93.945,36.828z
			 M109.945,108.828c-4.418,0-8,3.578-8,8v8c0,4.414-3.59,8-8,8s-8-3.586-8-8v-16c0-4.422-3.582-8-8-8H67.107l14.4-16h24.875
			l21.6,24H109.945z M149.945,152.828c0,2.203-1.793,4-4,4s-4-1.797-4-4v-28.486l8,8.889V152.828z"/>
	</g>
</g>
<g>
	<g>
		<rect x="352.991" y="116.839" transform="matrix(0.4472 -0.8944 0.8944 0.4472 88.414 392.7344)" width="17.888" height="16"/>
	</g>
</g>
<g>
	<g>
		<rect x="336.993" y="148.837" transform="matrix(0.4472 -0.8944 0.8944 0.4472 50.9515 396.1141)" width="17.888" height="16"/>
	</g>
</g>
<g>
	<g>
		<rect x="320.996" y="180.842" transform="matrix(0.4472 -0.8944 0.8944 0.4472 13.4815 399.4978)" width="17.888" height="16"/>
	</g>
</g>
<g>
	<g>
		<rect x="448.971" y="116.838" transform="matrix(0.4472 -0.8944 0.8944 0.4472 141.4725 478.5816)" width="17.888" height="16"/>
	</g>
</g>
<g>
	<g>
		<rect x="432.989" y="148.811" transform="matrix(0.4472 -0.8944 0.8944 0.4472 104.0399 481.9619)" width="17.888" height="16"/>
	</g>
</g>
<g>
	<g>
		<rect x="416.992" y="180.873" transform="matrix(0.4472 -0.8944 0.8944 0.4472 66.5197 485.3766)" width="17.888" height="16"/>
	</g>
</g>
<g>
	<g>
		<path d="M480.289,463.172c-8.866,8.859-23.626,9.625-33.631,2.463c8.102-45.328-10.657-90.959-48.798-117.369
			c-28.305-19.602-66.516-16.156-90.859,8.195l-2.711,2.711c-11.941,11.938-11.941,31.375,0,43.313
			c11.57,11.563,31.742,11.563,43.313,0l1.645-1.648c4.535,7.484,6.598,17.063,5.746,27.344
			c-1.188,14.305-7.801,27.07-17.695,34.141l0.098,0.137c-0.364,0.25-0.788,0.397-1.105,0.714
			c-9.084,9.078-24.342,9.633-34.344,1.889v-20.232c0-2.125-0.844-4.156-2.344-5.656l-32-32c-1.563-1.563-3.609-2.344-5.656-2.344
			h-40c-2.121,0-4.156,0.844-5.656,2.344l-32,32c-1.5,1.5-2.344,3.531-2.344,5.656v24.382c-9.02,2.781-19.459,0.841-26.344-6.038
			c-3-3-8.313-3-11.313,0c-4.001,3.998-9.223,6.275-14.657,7.01c4.572-3.171,9.276-7.003,13.97-11.697
			c26.895-26.891,18.477-62.109,18.105-63.594c-0.59-2.359-2.215-4.32-4.418-5.328c-2.207-1.023-4.75-0.969-6.922,0.109
			l-10.504,5.25c0.832-5.469,0.316-11.508-2.762-17.672c-6.551-13.102-14.637-14.719-19.988-15.789
			c-2.863-0.57-4.082-0.859-5.512-2.289c-2.254-2.258-1.297-14.055,1.938-23.82c1.016-3.07,0.086-6.453-2.359-8.57
			c-2.445-2.102-5.91-2.539-8.813-1.109c-8.414,4.211-50.828,26.078-59.578,43.578c-4.164,8.328-4.816,16.594-4.18,23.367
			l-10.133-3.375c-3.773-1.266-7.906,0.445-9.688,4.008c-6.566,13.133-11.18,43.828,18.355,65.977
			c2.977,2.232,5.784,4.207,8.511,6.067c-10.006,7.505-25.058,6.866-34.054-2.122L0.289,474.484
			c7.918,7.922,18.453,12.289,29.656,12.289c8.711,0,17.012-2.641,24-7.539c10.382,7.277,24.108,9.124,36.214,5.589
			c1.113-0.016,7.268-0.259,16.129-3.052c13.57,7.088,31.059,6.292,43.657-2.538c6.988,4.898,15.289,7.539,24,7.539
			c4.721,0,9.265-0.939,13.603-2.429c0.769,0.246,1.547,0.484,2.397,0.484h104c2.244,0,4.258-0.934,5.711-2.422
			c5.648,2.756,11.82,4.367,18.289,4.367c8.711,0,17.012-2.641,24-7.539c13.977,9.797,34.023,9.797,48,0
			c13.977,9.797,34.023,9.797,48,0c6.988,4.898,15.289,7.539,24,7.539c11.203,0,21.738-4.367,29.656-12.289L480.289,463.172z
			 M89.938,466.875c-6.977-5.625-15.992-14.883-15.992-22.047c0-6.984,8.137-19.047,16-28.203c7.863,9.156,16,21.219,16,28.203
			C105.945,451.953,96.914,461.227,89.938,466.875z M118.188,458.599c2.269-4.313,3.757-8.96,3.757-13.771
			c0-18.773-23.648-42.961-26.344-45.656c-3.125-3.125-8.188-3.125-11.313,0c-2.695,2.695-26.344,26.883-26.344,45.656
			c0,3.799,0.933,7.496,2.437,11.008c-4.129-2.595-8.656-5.672-13.636-9.407c-18.371-13.781-17.875-30.477-15.805-39.5l16.473,5.484
			c3.07,1.039,6.453,0.102,8.574-2.344s2.559-5.93,1.113-8.82c-0.063-0.125-6.043-12.758,0-24.844
			c3.555-7.109,20.977-18.938,37.449-28.367c-0.711,8.117,0.207,16.914,5.738,22.445c4.914,4.914,9.984,5.93,13.688,6.672
			c3.957,0.789,5.762,1.148,8.813,7.25c5.289,10.578-6.406,22.672-6.5,22.766c-2.773,2.773-3.129,7.148-0.832,10.336
			c2.293,3.188,6.543,4.227,10.066,2.477l21.75-10.875c0.105,9.953-2.223,25.297-14.984,38.063
			C127.474,451.986,122.706,455.688,118.188,458.599z M221.945,468.828h-24v-16h24V468.828z M209.258,436.828l16-16h17.375l-16,16
			H209.258z M285.945,468.828h-16v-24h-16v24h-16v-20.688l24-24l24,24V468.828z M383.763,463.596
			c-7.746,7.308-19.597,8.742-29.036,4.39c9.07-9.949,14.979-23.633,16.211-38.486c1.251-15.134-2.469-29.309-10.208-40.142
			l6.892-6.89c6.223,3.625,17.668,12.727,22.563,32.297C396.427,439.737,386.135,459.499,383.763,463.596z M430.607,464.527
			c-8.488,7.063-21.104,7.824-30.429,2.159c4.752-10.022,11.826-30.606,5.528-55.795c-8.961-35.852-36.082-45.266-37.23-45.648
			c-2.883-0.977-6.043-0.211-8.188,1.93l-16,16l-8,8c-5.703,5.703-14.984,5.703-20.688,0s-5.703-14.984,0-20.688l2.711-2.711
			c18.871-18.867,48.488-21.547,70.438-6.352C422.182,384.572,438.386,424.805,430.607,464.527z"/>
	</g>
</g>
<g>
</g>
<g>
</g>
<g>
</g>
<g>
</g>
<g>
</g>
<g>
</g>
<g>
</g>
<g>
</g>
<g>
</g>
<g>
</g>
<g>
</g>
<g>
</g>
<g>
</g>
<g>
</g>
<g>
</g>
</svg>
