<?xml version="1.0" encoding="iso-8859-1"?>
<!-- Generator: Adobe Illustrator 19.0.0, SVG Export Plug-In . SVG Version: 6.00 Build 0)  -->
<svg version="1.1" id="Capa_1" xmlns="http://www.w3.org/2000/svg" xmlns:xlink="http://www.w3.org/1999/xlink" x="0px" y="0px"
	 viewBox="0 0 512.001 512.001" style="enable-background:new 0 0 512.001 512.001;" xml:space="preserve">
<g>
	<g>
		<path d="M445.913,142.205c-2.644-33.344-17.021-64.32-41.047-88.045c-26.273-25.943-61.079-40.23-98.006-40.23
			c-44.596,0-86.08,21.107-112.361,56.819c-7.808-1.686-15.752-2.537-23.701-2.537c-24.769,0-48.255,7.905-67.922,22.86
			c-17.177,13.063-30.395,31.077-37.73,51.259C28.093,147.453,0,179.111,0,217.275c0,41.722,33.944,75.666,75.666,75.666h50.035
			l-36.393,74.332c-1.524,3.112-1.335,6.789,0.499,9.728c1.833,2.939,5.054,4.725,8.517,4.725h31.086L96.793,485.008
			c-1.443,4.566,0.541,9.515,4.737,11.821c1.524,0.837,3.185,1.242,4.832,1.242c2.886,0,5.725-1.244,7.688-3.577l126.384-150.247
			c2.513-2.988,3.066-7.16,1.419-10.7c-1.647-3.539-5.197-5.802-9.101-5.802h-33.053l18.419-34.806h93.249l-26.817,43.546
			c-1.907,3.097-1.99,6.984-0.216,10.16c1.774,3.176,5.127,5.144,8.764,5.144h25.407l-13.034,52.412
			c-1.105,4.444,0.938,9.073,4.965,11.252c1.506,0.815,3.146,1.21,4.773,1.21c2.725,0,5.412-1.108,7.363-3.211l81.689-88.024
			c2.716-2.926,3.439-7.184,1.843-10.843s-5.209-6.025-9.202-6.025h-18.521l9.124-15.621h48.821
			c41.727,0,75.676-33.944,75.676-75.666C512.001,178.799,483.138,146.938,445.913,142.205z M211.186,347.824l-80.078,95.197
			l21.573-68.31c0.964-3.051,0.416-6.378-1.476-8.958c-1.891-2.58-4.898-4.105-8.098-4.105h-28.692l33.639-68.708h47.341
			l-21.246,40.15c-1.645,3.112-1.541,6.859,0.275,9.875c1.816,3.016,5.08,4.86,8.6,4.86H211.186z M334.357,371.237l6.73-27.063
			c0.746-2.998,0.069-6.172-1.833-8.606c-1.903-2.434-4.82-3.856-7.909-3.856h-20.276l23.876-38.771h29.307l-12.03,20.597
			c-1.815,3.104-1.83,6.942-0.04,10.06c1.79,3.118,5.111,5.042,8.707,5.042h12.998L334.357,371.237z M436.324,272.863H212.002
			c-0.019,0-0.037,0-0.056,0H75.666c-30.651,0-55.587-24.936-55.587-55.587c0-29.784,23.281-54.175,53.002-55.528
			c4.282-0.195,7.968-3.087,9.176-7.2c11.457-39.011,47.866-66.257,88.541-66.257c8.492,0,16.985,1.187,25.244,3.526
			c4.207,1.193,8.702-0.477,11.112-4.125c22.207-33.613,59.48-53.682,99.706-53.682c64.956,0,118.522,52.83,119.407,117.766
			c0.075,5.49,4.567,9.903,10.058,9.903c30.657,0,55.597,24.94,55.597,55.597C491.922,247.927,466.981,272.863,436.324,272.863z"/>
	</g>
</g>
<g>
	<g>
		<path d="M193.089,230.108h-86.004c-5.545,0-10.039,4.495-10.039,10.039c0,5.545,4.495,10.039,10.039,10.039h86.004
			c5.545,0,10.039-4.495,10.039-10.039C203.128,234.603,198.634,230.108,193.089,230.108z"/>
	</g>
</g>
<g>
	<g>
		<path d="M224.823,230.108c-12.919,0-12.942,20.078,0,20.078C237.743,250.187,237.764,230.108,224.823,230.108z"/>
	</g>
</g>
<g>
</g>
<g>
</g>
<g>
</g>
<g>
</g>
<g>
</g>
<g>
</g>
<g>
</g>
<g>
</g>
<g>
</g>
<g>
</g>
<g>
</g>
<g>
</g>
<g>
</g>
<g>
</g>
<g>
</g>
</svg>
